<svg xmlns="http://www.w3.org/2000/svg" width="104" height="84" viewBox="0 0 104 84" fill="none">
  <g opacity="0.24" filter="url(#filter0_f_0_499)">
    <ellipse cx="62.4132" cy="40.6673" rx="12.7067" ry="12.5455" fill="#FF7EFA" fill-opacity="0.98"/>
  </g>
  <path d="M40.3787 78.7355L53.2971 71.1804V56.3425L40.3787 64.1271V78.7355Z" fill="url(#paint0_linear_0_499)"/>
  <path d="M40.3866 78.85L28.0383 71.8706V56.5563L40.3866 64.2553V78.85Z" fill="url(#paint1_linear_0_499)"/>
  <path opacity="0.4" d="M38.4295 75.3168L29.9954 70.5496V60.0896L38.4295 65.3482V75.3168Z" stroke="url(#paint2_linear_0_499)" stroke-width="0.864"/>
  <path opacity="0.405357" d="M40.64 60.1818L34.2934 56.5503L8.09839 10.1836H41.7358L46.08 56.5503L40.64 60.1818Z" fill="url(#paint3_linear_0_499)"/>
  <path opacity="0.405357" d="M46.0799 56.5974L58.7732 13.5844H34.2932L43.3599 61.974L46.0799 56.5974Z" fill="url(#paint4_linear_0_499)"/>
  <path d="M52.5495 38.6789C54.0676 37.6888 55.1366 37.581 55.7882 38.0399L56.8168 38.5773L56.5757 38.924C57.3622 41.2721 55.3322 46.6262 51.0713 49.1716C50.1743 49.7074 49.4378 49.9765 48.8504 50.0313L48.6272 50.3523L47.8853 49.8783C45.6355 48.7271 47.7639 41.7999 52.5495 38.6789Z" fill="#D7911D"/>
  <path d="M53.7876 39.1858C47.5575 43.2656 45.5021 53.773 52.1217 49.8024C58.7414 45.8318 60.0178 35.106 53.7876 39.1858Z" fill="url(#paint5_linear_0_499)"/>
  <path opacity="0.4" d="M53.4545 40.7978C48.9933 43.8148 47.6096 51.3567 52.3497 48.4204C57.0897 45.4841 57.9157 37.7807 53.4545 40.7978Z" stroke="#D7911D" stroke-width="0.5"/>
  <path d="M21.3863 36.5325C19.5967 36.8195 18.5762 36.4832 18.1676 35.7989L17.4465 34.8896L17.8078 34.671C18.0443 32.206 22.0766 28.1404 27.0044 27.5482C28.0418 27.4235 28.8241 27.4773 29.383 27.6661L29.7174 27.4637L30.2024 28.1984C31.7895 30.1652 27.0275 35.6277 21.3863 36.5325Z" fill="#D7911D"/>
  <path d="M20.4614 35.5658C27.8123 34.3728 33.9638 25.6098 26.3014 26.5447C18.6391 27.4795 13.1105 36.7589 20.4614 35.5658Z" fill="url(#paint6_linear_0_499)"/>
  <path opacity="0.4" d="M21.4213 34.2287C26.724 33.287 31.0556 26.96 25.531 27.7144C20.0064 28.4689 16.1187 35.1704 21.4213 34.2287Z" stroke="#D7911D" stroke-width="0.5"/>
  <path d="M48.8396 23.8997C48.8344 22.6605 49.1793 22.032 49.7 21.8663L50.4112 21.5271L50.5242 21.8025C52.2141 22.3456 54.6054 25.6722 54.4819 29.0535C54.4559 29.7653 54.3335 30.279 54.1413 30.6224L54.2458 30.8773L53.6818 31.0861C52.1404 31.8378 48.8561 27.806 48.8396 23.8997Z" fill="#D7911D"/>
  <path d="M49.5577 23.5123C49.589 28.6046 55.0194 34.0798 55.2016 28.8199C55.3838 23.5601 49.5264 18.4199 49.5577 23.5123Z" fill="url(#paint7_linear_0_499)"/>
  <path opacity="0.3" d="M50.1821 24.1037C50.2065 28.0628 54.4284 32.3196 54.5701 28.2302C54.7118 24.1409 50.1578 20.1445 50.1821 24.1037Z" stroke="#D7911D" stroke-width="0.5"/>
  <path d="M28.0383 56.6739L40.7193 49.7163L53.1056 56.4601L40.3993 64.2126L28.0383 56.6739Z" fill="url(#paint8_linear_0_499)"/>
  <path d="M34.3167 56.8381L40.6689 53.35L46.8735 56.731L40.5086 60.6175L34.3167 56.8381Z" fill="url(#paint9_linear_0_499)"/>
  <g opacity="0.405357" filter="url(#filter1_f_0_499)">
    <ellipse cx="52.0696" cy="68.3766" rx="8.11863" ry="8.01561" fill="#FFC37E" fill-opacity="0.98"/>
  </g>
  <g opacity="0.405357" filter="url(#filter2_f_0_499)">
    <ellipse cx="25.6882" cy="58.8376" rx="7.71478" ry="7.61688" fill="#FF7E95" fill-opacity="0.98"/>
  </g>
  <path d="M40.8118 56.5563V44.9664L45.8387 41.0873C46.0507 40.9237 46.1749 40.671 46.1749 40.4033V33.0438" stroke="url(#paint10_linear_0_499)" stroke-width="0.864"/>
  <path d="M40.7929 44.9278V40.2052C40.7929 39.7281 40.406 39.3412 39.9289 39.3412H36.2651V33.2576" stroke="url(#paint11_linear_0_499)" stroke-width="0.864"/>
  <ellipse cx="36.3734" cy="33.3645" rx="0.974235" ry="0.961873" fill="url(#paint12_linear_0_499)"/>
  <ellipse cx="46.1158" cy="33.3645" rx="0.974235" ry="0.961873" fill="url(#paint13_linear_0_499)"/>
  <ellipse cx="40.9198" cy="44.6932" rx="0.974235" ry="0.961873" fill="url(#paint14_linear_0_499)"/>
  <path d="M27.2533 41.5088C27.9774 40.1012 28.7412 39.5682 29.4329 39.6512L30.4442 39.6368L30.4108 40.0076C32.0189 41.5027 32.7874 46.5182 30.6546 50.2873C30.2056 51.0808 29.7632 51.5994 29.3417 51.8889L29.3108 52.2322L28.5442 52.1754C26.3427 52.2257 24.9708 45.946 27.2533 41.5088Z" fill="#D7911D"/>
  <path d="M28.3009 41.4433C25.3366 47.2328 28.3067 56.2653 31.6133 50.3971C34.9199 44.5288 31.2652 35.6538 28.3009 41.4433Z" fill="url(#paint15_linear_0_499)"/>
  <path opacity="0.4" d="M28.7261 42.6064C26.5325 46.8906 28.7304 53.5746 31.1773 49.2321C33.6242 44.8896 30.9197 38.3221 28.7261 42.6064Z" stroke="#D7911D" stroke-width="0.5"/>
  <path opacity="0.2" fill-rule="evenodd" clip-rule="evenodd" d="M32.8049 46.79C32.8008 46.7919 32.7966 46.7938 32.7925 46.7958C30.7784 47.7397 29.0828 49.311 27.8851 50.9638C28.7292 52.6672 30.1377 53.0156 31.6132 50.397C32.2514 49.2643 32.6303 48.0196 32.8049 46.79Z" fill="black"/>
  <defs>
    <filter id="filter0_f_0_499" x="21.7065" y="0.121887" width="81.4133" height="81.0909" filterUnits="userSpaceOnUse" color-interpolation-filters="sRGB">
      <feFlood flood-opacity="0" result="BackgroundImageFix"/>
      <feBlend mode="normal" in="SourceGraphic" in2="BackgroundImageFix" result="shape"/>
      <feGaussianBlur stdDeviation="14" result="effect1_foregroundBlur_0_499"/>
    </filter>
    <filter id="filter1_f_0_499" x="36.9509" y="53.361" width="30.2373" height="30.0312" filterUnits="userSpaceOnUse" color-interpolation-filters="sRGB">
      <feFlood flood-opacity="0" result="BackgroundImageFix"/>
      <feBlend mode="normal" in="SourceGraphic" in2="BackgroundImageFix" result="shape"/>
      <feGaussianBlur stdDeviation="3.5" result="effect1_foregroundBlur_0_499"/>
    </filter>
    <filter id="filter2_f_0_499" x="0.973389" y="34.2208" width="49.4294" height="49.2338" filterUnits="userSpaceOnUse" color-interpolation-filters="sRGB">
      <feFlood flood-opacity="0" result="BackgroundImageFix"/>
      <feBlend mode="normal" in="SourceGraphic" in2="BackgroundImageFix" result="shape"/>
      <feGaussianBlur stdDeviation="8.5" result="effect1_foregroundBlur_0_499"/>
    </filter>
    <linearGradient id="paint0_linear_0_499" x1="48.0028" y1="30.2983" x2="7.4495" y2="44.5026" gradientUnits="userSpaceOnUse">
      <stop stop-color="#EDB64F"/>
      <stop offset="1" stop-color="#DD26BC"/>
    </linearGradient>
    <linearGradient id="paint1_linear_0_499" x1="46.6706" y1="67.7983" x2="22.2389" y2="53.0479" gradientUnits="userSpaceOnUse">
      <stop stop-color="#6B1B98"/>
      <stop offset="1" stop-color="#DE0F62"/>
    </linearGradient>
    <linearGradient id="paint2_linear_0_499" x1="29.0302" y1="56.2828" x2="18.6241" y2="70.4488" gradientUnits="userSpaceOnUse">
      <stop stop-color="#FFD599"/>
      <stop offset="0.482372" stop-color="#D178A0"/>
      <stop offset="1" stop-color="#FFCE08"/>
    </linearGradient>
    <linearGradient id="paint3_linear_0_499" x1="17.6493" y1="15.5163" x2="17.6493" y2="81.0254" gradientUnits="userSpaceOnUse">
      <stop stop-color="#FDF27D" stop-opacity="0.01"/>
      <stop offset="0.4936" stop-color="#FCF17B" stop-opacity="0.240234"/>
      <stop offset="1" stop-color="#FBF079"/>
    </linearGradient>
    <linearGradient id="paint4_linear_0_499" x1="29.5953" y1="19" x2="29.5953" y2="65.968" gradientUnits="userSpaceOnUse">
      <stop stop-color="#FDF27D" stop-opacity="0.01"/>
      <stop offset="0.4936" stop-color="#FCF17B" stop-opacity="0.240234"/>
      <stop offset="1" stop-color="#FBF079"/>
    </linearGradient>
    <linearGradient id="paint5_linear_0_499" x1="46.5312" y1="36.0914" x2="41.2171" y2="51.6756" gradientUnits="userSpaceOnUse">
      <stop stop-color="#FFF585"/>
      <stop offset="1" stop-color="#DCC613"/>
    </linearGradient>
    <linearGradient id="paint6_linear_0_499" x1="25.8319" y1="41.3442" x2="37.0252" y2="29.2687" gradientUnits="userSpaceOnUse">
      <stop stop-color="#FFF585"/>
      <stop offset="1" stop-color="#DCC613"/>
    </linearGradient>
    <linearGradient id="paint7_linear_0_499" x1="44.9523" y1="26.1932" x2="51.6658" y2="35.8796" gradientUnits="userSpaceOnUse">
      <stop stop-color="#FFF585"/>
      <stop offset="1" stop-color="#DCC613"/>
    </linearGradient>
    <linearGradient id="paint8_linear_0_499" x1="49.3932" y1="40.0281" x2="24.5304" y2="68.2271" gradientUnits="userSpaceOnUse">
      <stop stop-color="#EDB64F"/>
      <stop offset="0.977895" stop-color="#E64082"/>
    </linearGradient>
    <linearGradient id="paint9_linear_0_499" x1="44.3789" y1="52.5568" x2="29.0809" y2="52.5568" gradientUnits="userSpaceOnUse">
      <stop stop-color="#FFD066"/>
      <stop offset="1" stop-color="#CE1D64"/>
    </linearGradient>
    <linearGradient id="paint10_linear_0_499" x1="40.198" y1="27.1657" x2="25.8331" y2="35.2187" gradientUnits="userSpaceOnUse">
      <stop stop-color="#FFD599"/>
      <stop offset="0.482372" stop-color="#D178A0"/>
      <stop offset="1" stop-color="#FFE26F"/>
    </linearGradient>
    <linearGradient id="paint11_linear_0_499" x1="33.7551" y1="31.6973" x2="26.3715" y2="54.2893" gradientUnits="userSpaceOnUse">
      <stop stop-color="#FFD599"/>
      <stop offset="1" stop-color="#A014A8"/>
    </linearGradient>
    <linearGradient id="paint12_linear_0_499" x1="40.0369" y1="35.9875" x2="38.132" y2="30.6617" gradientUnits="userSpaceOnUse">
      <stop stop-color="#FFFCF5"/>
      <stop offset="1" stop-color="#FFEFAD"/>
    </linearGradient>
    <linearGradient id="paint13_linear_0_499" x1="49.7793" y1="35.9875" x2="47.8744" y2="30.6617" gradientUnits="userSpaceOnUse">
      <stop stop-color="#FFFCF5"/>
      <stop offset="1" stop-color="#FFEFAD"/>
    </linearGradient>
    <linearGradient id="paint14_linear_0_499" x1="44.5833" y1="47.3163" x2="42.6784" y2="41.9904" gradientUnits="userSpaceOnUse">
      <stop stop-color="#FFFCF5"/>
      <stop offset="1" stop-color="#FFEFAD"/>
    </linearGradient>
    <linearGradient id="paint15_linear_0_499" x1="21.467" y1="42.0866" x2="23.9322" y2="56.4733" gradientUnits="userSpaceOnUse">
      <stop stop-color="#FFF585"/>
      <stop offset="1" stop-color="#DCC613"/>
    </linearGradient>
  </defs>
</svg>